<?xml version="1.0" encoding="UTF-8" standalone="no"?>
<!-- Created with Inkscape (http://www.inkscape.org/) -->

<svg
   xmlns:dc="http://purl.org/dc/elements/1.1/"
   xmlns:cc="http://creativecommons.org/ns#"
   xmlns:rdf="http://www.w3.org/1999/02/22-rdf-syntax-ns#"
   xmlns:svg="http://www.w3.org/2000/svg"
   xmlns="http://www.w3.org/2000/svg"
   xmlns:sodipodi="http://sodipodi.sourceforge.net/DTD/sodipodi-0.dtd"
   xmlns:inkscape="http://www.inkscape.org/namespaces/inkscape"
   width="256"
   height="256"
   viewBox="0 0 67.733332 67.733335"
   version="1.1"
   id="svg8"
   inkscape:version="0.92.2 5c3e80d, 2017-08-06"
   sodipodi:docname="icon.svg">
  <defs
     id="defs2" />
  <sodipodi:namedview
     id="base"
     pagecolor="#ffffff"
     bordercolor="#666666"
     borderopacity="1.0"
     inkscape:pageopacity="0.0"
     inkscape:pageshadow="2"
     inkscape:zoom="1.4"
     inkscape:cx="37.000591"
     inkscape:cy="85.398705"
     inkscape:document-units="mm"
     inkscape:current-layer="layer1"
     showgrid="false"
     units="px"
     inkscape:window-width="1920"
     inkscape:window-height="1051"
     inkscape:window-x="0"
     inkscape:window-y="0"
     inkscape:window-maximized="1" />
  <metadata
     id="metadata5">
    <rdf:RDF>
      <cc:Work
         rdf:about="">
        <dc:format>image/svg+xml</dc:format>
        <dc:type
           rdf:resource="http://purl.org/dc/dcmitype/StillImage" />
        <dc:title></dc:title>
      </cc:Work>
    </rdf:RDF>
  </metadata>
  <g
     inkscape:label="Layer 1"
     inkscape:groupmode="layer"
     id="layer1"
     transform="translate(0,-229.26665)">
    <g
       id="g849"
       transform="matrix(0.26458333,0,0,0.26458333,0.12340533,168.86037)"
       inkscape:export-xdpi="48"
       inkscape:export-ydpi="48">
      <rect
         y="229.24716"
         x="-0.13363476"
         height="256"
         width="256"
         id="rect10"
         style="fill:#3ab03e;fill-opacity:1;stroke-width:0.26458332" />
      <path
         style="fill:#ffffff;stroke-width:1.3303206"
         inkscape:connector-curvature="0"
         d="m 140.09449,365.53165 c 8.28817,-4.05471 13.99581,-12.57011 13.99581,-22.41902 0,-13.77633 -11.16721,-24.94353 -24.94352,-24.94353 -13.7763,0 -24.9435,11.1672 -24.9435,24.94353 0,9.84921 5.70804,18.36486 13.99663,22.41942 v 30.79327 h 21.89458 z m -10.94771,71.53478 c -44.012819,0 -79.81922,-35.80643 -79.81922,-79.81923 0,-44.01286 35.806401,-79.81925 79.81922,-79.81925 35.91701,0 66.36474,23.84763 76.35292,56.53863 h 27.51188 c -10.61845,-47.57891 -53.08562,-83.14506 -103.8648,-83.14506 -58.777707,0 -106.425634,47.64875 -106.425634,106.42568 0,58.77687 47.647927,106.42561 106.425634,106.42561 50.77918,0 93.24635,-35.56609 103.8648,-83.14499 H 205.4997 c -9.98818,32.69094 -40.43591,56.53861 -76.35292,56.53861 z"
         id="path817" />
    </g>
  </g>
</svg>
